# xmcd
#
# Track frame offsets:
#	150
#	22359
#	36700
#	53856
#	74106
#	92766
#	109559
#	134271
#	151736
#	161486
#	187535
#
# Disc length: 2755 seconds
#
# Revision: 0
# Processed by: cddbd v1.5.2PL0 Copyright (c) Steve Scherf et al.
# Submitted via: EZCDAudioConverter 4.0.9.1
#
DISCID=940ac10b
DTITLE=Jack Broadbent - Portrait
DYEAR=1900
DGENRE=
TTITLE0=Reputation
TTITLE1=Woman
TTITLE2=She Said
TTITLE3=Gone, Gone, Gone
TTITLE4=You Won't Let Me Love You
TTITLE5=Without Warning
TTITLE6=In Our Home
TTITLE7=Underneath The Rain
TTITLE8=East Is West
TTITLE9=Along The Trail Of Tearrs (Still Cryin')
TTITLE10=Is There A God?
EXTD=
EXTT0=
EXTT1=
EXTT2=
EXTT3=
EXTT4=
EXTT5=
EXTT6=
EXTT7=
EXTT8=
EXTT9=
EXTT10=
PLAYORDER=
